<mxfile host="65bd71144e">
    <diagram id="Pwh17KiYS3t1jNNCGKba" name="Page-1">
        <mxGraphModel dx="3610" dy="1980" grid="1" gridSize="10" guides="1" tooltips="1" connect="1" arrows="1" fold="1" page="1" pageScale="1" pageWidth="300" pageHeight="400" background="#E3D3D8" math="0" shadow="0">
            <root>
                <mxCell id="0"/>
                <mxCell id="1" parent="0"/>
                <mxCell id="58" value="" style="rounded=1;whiteSpace=wrap;html=1;shadow=0;strokeWidth=3;fontColor=#000000;opacity=70;" parent="1" vertex="1">
                    <mxGeometry x="-371" y="311" width="450.87" height="173" as="geometry"/>
                </mxCell>
                <mxCell id="67" value="&lt;font style=&quot;font-size: 30px;&quot; color=&quot;#000000&quot;&gt;Dashboard&lt;br&gt;&amp;nbsp;Functionality&lt;br&gt;&lt;/font&gt;" style="text;html=1;align=center;verticalAlign=middle;resizable=0;points=[];autosize=1;strokeColor=none;fillColor=#d8c9ce;shadow=0;strokeWidth=3;fontStyle=1" parent="1" vertex="1">
                    <mxGeometry x="-255" y="124" width="220" height="90" as="geometry"/>
                </mxCell>
                <mxCell id="81" value="Actor" style="shape=umlActor;verticalLabelPosition=bottom;verticalAlign=top;html=1;outlineConnect=0;strokeColor=#000000;strokeWidth=4;fontColor=#000000;" parent="1" vertex="1">
                    <mxGeometry x="-664.56" y="760.5" width="110" height="220" as="geometry"/>
                </mxCell>
                <mxCell id="85" value="get message, label (if not null), current date and persist to DB" style="rounded=0;whiteSpace=wrap;html=1;strokeColor=none;strokeWidth=4;" parent="1" vertex="1">
                    <mxGeometry x="-275.57" y="371" width="260" height="60" as="geometry"/>
                </mxCell>
                <mxCell id="101" value="&lt;b&gt;Send a post&lt;br&gt;&lt;/b&gt;" style="text;html=1;align=center;verticalAlign=middle;resizable=0;points=[];autosize=1;strokeColor=none;fillColor=#999999;fontColor=#000000;labelBackgroundColor=none;labelBorderColor=none;" parent="1" vertex="1">
                    <mxGeometry x="-190.57000000000005" y="321" width="90" height="30" as="geometry"/>
                </mxCell>
                <mxCell id="103" value="" style="rounded=1;whiteSpace=wrap;html=1;shadow=0;strokeWidth=3;fontColor=#000000;opacity=70;" parent="1" vertex="1">
                    <mxGeometry x="-810" y="124" width="370.87" height="200" as="geometry"/>
                </mxCell>
                <mxCell id="106" value="&lt;b&gt;Security&lt;br&gt;AppFilter&lt;br&gt;&lt;/b&gt;" style="text;html=1;align=center;verticalAlign=middle;resizable=0;points=[];autosize=1;strokeColor=none;fillColor=#999999;fontColor=#000000;labelBackgroundColor=none;labelBorderColor=none;" parent="1" vertex="1">
                    <mxGeometry x="-664.5600000000001" y="134" width="80" height="40" as="geometry"/>
                </mxCell>
                <mxCell id="108" value="if don't get Session" style="rounded=0;whiteSpace=wrap;html=1;strokeColor=none;strokeWidth=4;" parent="1" vertex="1">
                    <mxGeometry x="-768.91" y="194" width="94.56" height="60" as="geometry"/>
                </mxCell>
                <mxCell id="109" value="" style="shape=flexArrow;endArrow=classic;html=1;fillColor=default;endWidth=11;endSize=6.63;width=8;" parent="1" edge="1">
                    <mxGeometry width="50" height="50" relative="1" as="geometry">
                        <mxPoint x="-664.3500000000001" y="223.5" as="sourcePoint"/>
                        <mxPoint x="-584.35" y="223.5" as="targetPoint"/>
                    </mxGeometry>
                </mxCell>
                <mxCell id="111" value="redirect to&lt;br&gt;login" style="rounded=0;whiteSpace=wrap;html=1;strokeColor=none;strokeWidth=4;" parent="1" vertex="1">
                    <mxGeometry x="-574.79" y="194" width="94.56" height="60" as="geometry"/>
                </mxCell>
                <mxCell id="113" value="" style="shape=flexArrow;endArrow=classic;html=1;fillColor=default;endWidth=24;endSize=15;" parent="1" edge="1">
                    <mxGeometry width="50" height="50" relative="1" as="geometry">
                        <mxPoint x="-550" y="864" as="sourcePoint"/>
                        <mxPoint x="-300.23" y="401" as="targetPoint"/>
                        <Array as="points">
                            <mxPoint x="-410" y="864"/>
                            <mxPoint x="-410.23" y="401"/>
                        </Array>
                    </mxGeometry>
                </mxCell>
                <mxCell id="117" value="&lt;b&gt;use = /app/*&lt;br&gt;&lt;/b&gt;" style="text;html=1;align=center;verticalAlign=middle;resizable=0;points=[];autosize=1;strokeColor=none;fillColor=#999999;fontColor=#000000;labelBackgroundColor=none;labelBorderColor=none;" parent="1" vertex="1">
                    <mxGeometry x="-674.35" y="279" width="90" height="30" as="geometry"/>
                </mxCell>
                <mxCell id="119" value="" style="shape=flexArrow;endArrow=classic;html=1;fillColor=#ED0036;strokeColor=none;endWidth=38;endSize=10.4;" parent="1" edge="1">
                    <mxGeometry width="50" height="50" relative="1" as="geometry">
                        <mxPoint x="97" y="401.25" as="sourcePoint"/>
                        <mxPoint x="230" y="584" as="targetPoint"/>
                    </mxGeometry>
                </mxCell>
                <mxCell id="130" style="edgeStyle=none;html=1;" parent="1" edge="1">
                    <mxGeometry relative="1" as="geometry">
                        <mxPoint x="346.6200000000149" y="431.75" as="sourcePoint"/>
                        <mxPoint x="346.81333333336215" y="460.75" as="targetPoint"/>
                    </mxGeometry>
                </mxCell>
                <mxCell id="123" value="&lt;font style=&quot;font-size: 30px;&quot; color=&quot;#000000&quot;&gt;CRUD&lt;br&gt;&lt;/font&gt;" style="text;html=1;align=center;verticalAlign=middle;resizable=0;points=[];autosize=1;strokeColor=none;fillColor=#d8c9ce;shadow=0;strokeWidth=4;fontStyle=1" parent="1" vertex="1">
                    <mxGeometry x="311.4200000000001" y="214" width="110" height="50" as="geometry"/>
                </mxCell>
                <mxCell id="124" value="" style="rounded=1;whiteSpace=wrap;html=1;shadow=0;strokeWidth=3;fontColor=#000000;opacity=70;" parent="1" vertex="1">
                    <mxGeometry x="-380" y="504" width="450.87" height="173" as="geometry"/>
                </mxCell>
                <mxCell id="125" value="get message, label (if not null), current date and update to DB" style="rounded=0;whiteSpace=wrap;html=1;strokeColor=none;strokeWidth=4;" parent="1" vertex="1">
                    <mxGeometry x="-284.57" y="564" width="260" height="60" as="geometry"/>
                </mxCell>
                <mxCell id="126" value="&lt;b&gt;Edit a post&lt;br&gt;&lt;/b&gt;" style="text;html=1;align=center;verticalAlign=middle;resizable=0;points=[];autosize=1;strokeColor=none;fillColor=#999999;fontColor=#000000;labelBackgroundColor=none;labelBorderColor=none;" parent="1" vertex="1">
                    <mxGeometry x="-194.57000000000005" y="514" width="80" height="30" as="geometry"/>
                </mxCell>
                <mxCell id="127" value="" style="rounded=1;whiteSpace=wrap;html=1;shadow=0;strokeWidth=3;fontColor=#000000;opacity=70;" parent="1" vertex="1">
                    <mxGeometry x="232" y="644.5" width="278.83" height="119.5" as="geometry"/>
                </mxCell>
                <mxCell id="128" value="" style="shape=flexArrow;endArrow=classic;html=1;fillColor=#ED0036;strokeColor=none;endWidth=38;endSize=10.4;" parent="1" edge="1">
                    <mxGeometry width="50" height="50" relative="1" as="geometry">
                        <mxPoint x="97" y="590.75" as="sourcePoint"/>
                        <mxPoint x="200" y="644" as="targetPoint"/>
                    </mxGeometry>
                </mxCell>
                <mxCell id="129" value="Alert: &quot;DataBase Connection failed&quot;" style="rounded=0;whiteSpace=wrap;html=1;" parent="1" vertex="1">
                    <mxGeometry x="311.4200000000001" y="675" width="120" height="60" as="geometry"/>
                </mxCell>
                <mxCell id="132" value="" style="shape=flexArrow;endArrow=classic;html=1;fillColor=default;endWidth=24;endSize=15;" parent="1" edge="1">
                    <mxGeometry width="50" height="50" relative="1" as="geometry">
                        <mxPoint x="-415" y="594" as="sourcePoint"/>
                        <mxPoint x="-305.02000000000004" y="594" as="targetPoint"/>
                        <Array as="points">
                            <mxPoint x="-415.02000000000004" y="594"/>
                        </Array>
                    </mxGeometry>
                </mxCell>
                <mxCell id="133" value="" style="rounded=1;whiteSpace=wrap;html=1;shadow=0;strokeWidth=3;fontColor=#000000;opacity=70;" parent="1" vertex="1">
                    <mxGeometry x="-380" y="704" width="450.87" height="173" as="geometry"/>
                </mxCell>
                <mxCell id="134" value="remove a post from DB" style="rounded=0;whiteSpace=wrap;html=1;strokeColor=none;strokeWidth=4;" parent="1" vertex="1">
                    <mxGeometry x="-284.57" y="764" width="260" height="60" as="geometry"/>
                </mxCell>
                <mxCell id="135" value="&lt;b&gt;Remove a post&lt;br&gt;&lt;/b&gt;" style="text;html=1;align=center;verticalAlign=middle;resizable=0;points=[];autosize=1;strokeColor=none;fillColor=#999999;fontColor=#000000;labelBackgroundColor=none;labelBorderColor=none;" parent="1" vertex="1">
                    <mxGeometry x="-209.57000000000005" y="714" width="110" height="30" as="geometry"/>
                </mxCell>
                <mxCell id="137" value="" style="shape=flexArrow;endArrow=classic;html=1;fillColor=#ED0036;strokeColor=none;endWidth=38;endSize=10.4;" parent="1" edge="1">
                    <mxGeometry width="50" height="50" relative="1" as="geometry">
                        <mxPoint x="97" y="790.75" as="sourcePoint"/>
                        <mxPoint x="200" y="734" as="targetPoint"/>
                    </mxGeometry>
                </mxCell>
                <mxCell id="139" value="" style="shape=flexArrow;endArrow=classic;html=1;fillColor=default;endWidth=24;endSize=15;" parent="1" edge="1">
                    <mxGeometry width="50" height="50" relative="1" as="geometry">
                        <mxPoint x="-410" y="794" as="sourcePoint"/>
                        <mxPoint x="-300" y="793.5" as="targetPoint"/>
                        <Array as="points"/>
                    </mxGeometry>
                </mxCell>
                <mxCell id="141" value="" style="rounded=1;whiteSpace=wrap;html=1;shadow=0;strokeWidth=3;fontColor=#000000;opacity=70;" parent="1" vertex="1">
                    <mxGeometry x="-380" y="904" width="450.87" height="173" as="geometry"/>
                </mxCell>
                <mxCell id="142" value="get filters (label and date) checked (if it does) and read from DB" style="rounded=0;whiteSpace=wrap;html=1;strokeColor=none;strokeWidth=4;" parent="1" vertex="1">
                    <mxGeometry x="-284.57" y="964" width="260" height="60" as="geometry"/>
                </mxCell>
                <mxCell id="143" value="&lt;b&gt;List posts&lt;br&gt;&lt;/b&gt;" style="text;html=1;align=center;verticalAlign=middle;resizable=0;points=[];autosize=1;strokeColor=none;fillColor=#999999;fontColor=#000000;labelBackgroundColor=none;labelBorderColor=none;" parent="1" vertex="1">
                    <mxGeometry x="-194.57000000000005" y="914" width="80" height="30" as="geometry"/>
                </mxCell>
                <mxCell id="145" value="" style="shape=flexArrow;endArrow=classic;html=1;fillColor=#ED0036;strokeColor=none;endWidth=38;endSize=10.4;" parent="1" edge="1">
                    <mxGeometry width="50" height="50" relative="1" as="geometry">
                        <mxPoint x="97" y="990.75" as="sourcePoint"/>
                        <mxPoint x="230" y="794" as="targetPoint"/>
                    </mxGeometry>
                </mxCell>
                <mxCell id="147" value="" style="shape=flexArrow;endArrow=classic;html=1;fillColor=default;endWidth=24;endSize=15;" parent="1" edge="1">
                    <mxGeometry width="50" height="50" relative="1" as="geometry">
                        <mxPoint x="-410" y="864" as="sourcePoint"/>
                        <mxPoint x="-310.00000000000045" y="993.58" as="targetPoint"/>
                        <Array as="points">
                            <mxPoint x="-410" y="994"/>
                        </Array>
                    </mxGeometry>
                </mxCell>
            </root>
        </mxGraphModel>
    </diagram>
</mxfile>